<?xml version="1.0" encoding="UTF-8"?>
<svg id="Layer_1" data-name="Layer 1" xmlns="http://www.w3.org/2000/svg" xmlns:xlink="http://www.w3.org/1999/xlink" viewBox="0 0 181 81">
  <defs>
    <style>
      .cls-1 {
        fill: url(#linear-gradient-2);
      }

      .cls-2 {
        fill: #fff;
      }

      .cls-3 {
        fill: url(#linear-gradient-3);
      }

      .cls-4 {
        fill: #c58245;
      }

      .cls-5 {
        fill: url(#linear-gradient);
      }
    </style>
    <linearGradient id="linear-gradient" x1="126.74" y1="41.84" x2="138.18" y2="41.84" gradientUnits="userSpaceOnUse">
      <stop offset="0" stop-color="#44120e"/>
      <stop offset=".55" stop-color="#44120e"/>
      <stop offset=".61" stop-color="#501e13"/>
      <stop offset=".72" stop-color="#703f23"/>
      <stop offset=".86" stop-color="#a4753c"/>
      <stop offset="1" stop-color="#dfb259"/>
    </linearGradient>
    <linearGradient id="linear-gradient-2" x1="125.3" y1="41.84" x2="146.1" y2="41.84" xlink:href="#linear-gradient"/>
    <linearGradient id="linear-gradient-3" x1="125.3" y1="41.84" x2="157.98" y2="41.84" xlink:href="#linear-gradient"/>
  </defs>
  <g>
    <g>
      <path class="cls-2" d="M25.37,40.98c0,8.1-5.01,13.85-12.37,13.85S.5,49.39.5,41.86s5.22-13.02,12.45-13.02c6.15,0,11.19,4.06,12.18,9.81h-6.78c-.85-2.08-2.95-3.42-5.34-3.42-3.52,0-5.89,2.68-5.89,6.63s2.33,6.59,5.89,6.59c2.47,0,4.58-1.26,5.32-3.17h-5.83v-4.3h12.87Z"/>
      <path class="cls-2" d="M35.16,46.64h-2.34v7.57h-6.47v-24.75h10.17c5.06,0,8.73,3.58,8.73,8.76,0,3.04-1.41,5.53-3.73,6.99l4.66,9h-7.22l-3.81-7.57ZM32.81,40.89h2.95c1.81,0,2.85-1.15,2.85-2.69s-1.04-2.68-2.85-2.68h-2.95v5.37Z"/>
      <path class="cls-2" d="M63.3,50.19h-8.32l-1.3,4.02h-6.93l9.22-24.75h6.32l9.42,24.75h-7.12l-1.29-4.02ZM59.13,37.19l-2.57,7.67h5.17l-2.6-7.67Z"/>
      <polygon class="cls-2" points="89.93 29.46 80.94 54.21 74.92 54.21 65.74 29.46 73.12 29.46 77.91 44.85 82.59 29.46 89.93 29.46"/>
      <rect class="cls-2" x="91.46" y="29.46" width="6.55" height="24.75"/>
      <path class="cls-2" d="M112.07,54.84c-7.14,0-12.48-5.58-12.48-12.98s5.34-13.02,12.48-13.02c6.15,0,10.92,4.28,11.87,10.56h-6.55c-.81-2.54-2.83-4.19-5.3-4.19-3.32,0-5.76,2.82-5.76,6.65s2.44,6.59,5.76,6.59c2.6,0,4.65-1.79,5.31-4.54h6.61c-.89,6.51-5.69,10.92-11.94,10.92h0Z"/>
      <polygon class="cls-2" points="180.5 29.46 180.5 54.21 175.15 54.21 165.83 40.78 165.83 54.21 159.56 54.21 159.56 29.46 165.22 29.46 174.23 42.45 174.23 29.46 180.5 29.46"/>
    </g>
    <path class="cls-5" d="M131.32,48.88c-1.75-.54-3.09-3.63-3.09-7.04s1.33-6.5,3.09-7.04c.63-.19,1.26-.06,1.86.41,1.41,1.1,2.31,3.65,2.31,6.63s-.9,5.53-2.31,6.63c-.47.36-.94.53-1.42.5-.15,0-.29-.04-.44-.08M131.06,32.39c-1.28.48-2.42,1.76-3.2,3.59-.73,1.7-1.12,3.77-1.12,5.85s.4,4.16,1.12,5.85c.78,1.83,1.92,3.11,3.2,3.59.3.11.6.18.91.21.88.08,1.8-.19,2.65-.8,2.17-1.56,3.57-4.97,3.57-8.85s-1.39-7.3-3.57-8.85c-.85-.61-1.76-.88-2.65-.8-.31.03-.61.1-.91.21"/>
    <path class="cls-1" d="M133.08,53.61c-3.49-1.05-6.13-6.11-6.13-11.77s2.63-10.72,6.13-11.77c.47-.14.95-.21,1.43-.21,1.11,0,2.2.39,3.22,1.15,2.63,1.97,4.27,6.12,4.27,10.84s-1.63,8.87-4.27,10.84c-1.02.76-2.11,1.15-3.22,1.15-.47,0-.95-.07-1.43-.21M132.99,26.54c-4.46,1.71-7.7,8.14-7.7,15.3s3.24,13.59,7.7,15.3c.82.31,1.66.47,2.51.47,1.53,0,3.08-.51,4.51-1.5,1.77-1.23,3.27-3.13,4.34-5.49,1.14-2.54,1.75-5.57,1.75-8.78s-.6-6.24-1.75-8.78c-1.06-2.36-2.56-4.26-4.34-5.49-1.44-1-2.98-1.5-4.51-1.5-.85,0-1.69.16-2.51.47"/>
    <path class="cls-3" d="M134.66,60.72c-2.75-1.28-4.87-3.87-6.56-7.5-1.57-3.37-2.44-7.42-2.44-11.38s.86-8.01,2.44-11.38c1.69-3.63,3.81-6.22,6.56-7.5,1.31-.61,2.65-.91,4-.91,1.81,0,3.61.55,5.29,1.63,4.84,3.11,7.73,9.9,7.73,18.17s-2.89,15.05-7.73,18.16c-1.68,1.08-3.49,1.63-5.3,1.63-1.34,0-2.7-.3-4-.91M135.48,19.06c-6,3.64-10.19,13-10.19,22.78s4.19,19.14,10.19,22.78c1.96,1.19,4.07,1.78,6.18,1.78,1.99,0,3.99-.53,5.85-1.59,6.29-3.57,10.47-12.16,10.47-22.97s-4.18-19.4-10.47-22.97c-1.87-1.06-3.86-1.59-5.85-1.59-2.11,0-4.22.6-6.18,1.78"/>
  </g>
  <g>
    <path class="cls-4" d="M2.7,64.47c-.24,0-.43-.19-.43-.43s.19-.43.43-.43c.23,0,.41.19.41.43s-.19.43-.41.43Z"/>
    <path class="cls-4" d="M4.15,64.47c-.24,0-.43-.19-.43-.43s.19-.43.43-.43c.23,0,.41.19.41.43s-.19.43-.41.43Z"/>
    <path class="cls-4" d="M5.6,64.47c-.24,0-.43-.19-.43-.43s.19-.43.43-.43c.23,0,.41.19.41.43s-.19.43-.41.43Z"/>
    <path class="cls-4" d="M6.18,60.64h.64l.87,3.18.94-3.18h.64l.92,3.19.86-3.19h.62l-1.18,3.79h-.65l-.91-3.01-.91,3.01h-.65l-1.19-3.79Z"/>
    <path class="cls-4" d="M12.29,59.31h.63v1.87c.25-.4.72-.62,1.25-.62.84,0,1.51.54,1.51,1.63v2.23h-.62v-2.14c0-.77-.42-1.17-1.06-1.17s-1.08.4-1.08,1.22v2.1h-.63v-5.12Z"/>
    <path class="cls-4" d="M18.38,64.49c-1.08,0-1.87-.76-1.87-1.96s.77-1.95,1.87-1.95,1.82.77,1.82,1.81c0,.14,0,.25-.02.38h-3.02c.05.77.59,1.19,1.23,1.19.57,0,.92-.29,1.06-.7h.68c-.19.69-.8,1.23-1.74,1.23ZM17.16,62.26h2.39c0-.74-.55-1.15-1.19-1.15-.61,0-1.12.41-1.19,1.15Z"/>
    <path class="cls-4" d="M21.65,64.43h-.63v-3.79h.63v.62c.21-.42.62-.68,1.22-.68v.65h-.17c-.6,0-1.06.27-1.06,1.15v2.06Z"/>
    <path class="cls-4" d="M25.17,64.49c-1.08,0-1.87-.76-1.87-1.96s.77-1.95,1.87-1.95,1.82.77,1.82,1.81c0,.14,0,.25-.02.38h-3.02c.05.77.59,1.19,1.23,1.19.57,0,.92-.29,1.06-.7h.68c-.19.69-.8,1.23-1.74,1.23ZM23.95,62.26h2.39c0-.74-.55-1.15-1.19-1.15-.61,0-1.12.41-1.19,1.15Z"/>
    <path class="cls-4" d="M31,64.49c-.88,0-1.5-.48-1.55-1.18h.65c.03.37.36.64.89.64.5,0,.77-.25.77-.56,0-.84-2.24-.35-2.24-1.76,0-.58.55-1.06,1.39-1.06s1.39.45,1.43,1.19h-.63c-.03-.38-.32-.66-.82-.66-.46,0-.74.22-.74.53,0,.9,2.19.41,2.22,1.76,0,.62-.55,1.09-1.38,1.09Z"/>
    <path class="cls-4" d="M34.87,60.58c.94,0,1.55.48,1.75,1.28h-.68c-.13-.46-.51-.75-1.07-.75-.69,0-1.2.49-1.2,1.42s.51,1.43,1.2,1.43c.56,0,.93-.27,1.07-.75h.68c-.19.75-.81,1.28-1.75,1.28-1.08,0-1.84-.76-1.84-1.96s.77-1.95,1.84-1.95Z"/>
    <path class="cls-4" d="M37.35,59.59c0-.24.19-.43.43-.43.23,0,.41.19.41.43s-.19.43-.41.43c-.24,0-.43-.19-.43-.43ZM37.46,60.64h.63v3.79h-.63v-3.79Z"/>
    <path class="cls-4" d="M40.79,64.49c-1.08,0-1.87-.76-1.87-1.96s.77-1.95,1.87-1.95,1.82.77,1.82,1.81c0,.14,0,.25-.02.38h-3.02c.05.77.59,1.19,1.23,1.19.57,0,.92-.29,1.06-.7h.68c-.19.69-.8,1.23-1.74,1.23ZM39.57,62.26h2.39c0-.74-.55-1.15-1.19-1.15-.61,0-1.12.41-1.19,1.15Z"/>
    <path class="cls-4" d="M46.2,62.28c0-.77-.42-1.17-1.06-1.17s-1.08.4-1.08,1.22v2.1h-.63v-3.79h.63v.54c.25-.39.7-.61,1.21-.61.88,0,1.55.54,1.55,1.63v2.23h-.62v-2.14Z"/>
    <path class="cls-4" d="M49.49,60.58c.94,0,1.55.48,1.75,1.28h-.68c-.13-.46-.51-.75-1.07-.75-.69,0-1.2.49-1.2,1.42s.51,1.43,1.2,1.43c.56,0,.93-.27,1.07-.75h.68c-.19.75-.81,1.28-1.75,1.28-1.08,0-1.84-.76-1.84-1.96s.77-1.95,1.84-1.95Z"/>
    <path class="cls-4" d="M53.66,64.49c-1.08,0-1.87-.76-1.87-1.96s.77-1.95,1.87-1.95,1.82.77,1.82,1.81c0,.14,0,.25-.02.38h-3.02c.05.77.59,1.19,1.23,1.19.57,0,.92-.29,1.06-.7h.68c-.19.69-.8,1.23-1.74,1.23ZM52.44,62.26h2.39c0-.74-.55-1.15-1.19-1.15-.61,0-1.12.41-1.19,1.15Z"/>
    <path class="cls-4" d="M63.61,62.28c0-.77-.41-1.17-1.04-1.17s-1.07.41-1.07,1.22v2.09h-.62v-2.14c0-.77-.41-1.17-1.04-1.17s-1.07.41-1.07,1.22v2.09h-.63v-3.79h.63v.55c.25-.4.7-.62,1.19-.62.62,0,1.14.28,1.39.84.22-.55.76-.84,1.34-.84.86,0,1.53.54,1.53,1.63v2.23h-.62v-2.14Z"/>
    <path class="cls-4" d="M66.93,64.49c-1.08,0-1.87-.76-1.87-1.96s.77-1.95,1.87-1.95,1.82.77,1.82,1.81c0,.14,0,.25-.02.38h-3.02c.05.77.59,1.19,1.23,1.19.57,0,.92-.29,1.06-.7h.68c-.19.69-.8,1.23-1.74,1.23ZM65.71,62.26h2.39c0-.74-.55-1.15-1.19-1.15-.61,0-1.12.41-1.19,1.15Z"/>
    <path class="cls-4" d="M71.21,64.49c-1.08,0-1.87-.76-1.87-1.96s.77-1.95,1.87-1.95,1.82.77,1.82,1.81c0,.14,0,.25-.02.38h-3.02c.05.77.59,1.19,1.23,1.19.57,0,.92-.29,1.06-.7h.68c-.19.69-.8,1.23-1.74,1.23ZM69.99,62.26h2.39c0-.74-.55-1.15-1.19-1.15-.61,0-1.12.41-1.19,1.15Z"/>
    <path class="cls-4" d="M73.99,61.16h-.49v-.52h.49v-.95h.63v.95h.99v.52h-.99v2.23c0,.37.14.5.52.5h.46v.53h-.57c-.67,0-1.05-.28-1.05-1.04v-2.23Z"/>
    <path class="cls-4" d="M77.71,64.49c-.88,0-1.5-.48-1.55-1.18h.65c.03.37.36.64.89.64.5,0,.77-.25.77-.56,0-.84-2.24-.35-2.24-1.76,0-.58.55-1.06,1.39-1.06s1.39.45,1.43,1.19h-.63c-.03-.38-.32-.66-.82-.66-.46,0-.74.22-.74.53,0,.9,2.19.41,2.22,1.76,0,.62-.55,1.09-1.38,1.09Z"/>
    <path class="cls-4" d="M83.15,64.49c-.88,0-1.5-.48-1.55-1.18h.65c.03.37.36.64.89.64.5,0,.77-.25.77-.56,0-.84-2.24-.35-2.24-1.76,0-.58.55-1.06,1.39-1.06s1.39.45,1.43,1.19h-.63c-.03-.38-.32-.66-.82-.66-.46,0-.74.22-.74.53,0,.9,2.19.41,2.22,1.76,0,.62-.55,1.09-1.38,1.09Z"/>
    <path class="cls-4" d="M88.77,64.43h-.63v-.56c-.24.39-.7.62-1.21.62-.87,0-1.55-.54-1.55-1.63v-2.22h.62v2.14c0,.77.42,1.16,1.06,1.16s1.08-.4,1.08-1.22v-2.08h.63v3.79Z"/>
    <path class="cls-4" d="M91.88,60.58c1.02,0,1.79.76,1.79,1.94s-.78,1.97-1.79,1.97c-.69,0-1.18-.35-1.41-.76v.7h-.63v-5.12h.63v2.03c.24-.42.75-.77,1.41-.77ZM91.75,61.12c-.68,0-1.28.53-1.28,1.4s.6,1.41,1.28,1.41,1.28-.53,1.28-1.42-.59-1.4-1.28-1.4Z"/>
    <path class="cls-4" d="M95.84,64.49c-.88,0-1.5-.48-1.55-1.18h.65c.03.37.36.64.89.64.5,0,.77-.25.77-.56,0-.84-2.24-.35-2.24-1.76,0-.58.55-1.06,1.39-1.06s1.39.45,1.43,1.19h-.63c-.03-.38-.32-.66-.82-.66-.46,0-.74.22-.74.53,0,.9,2.19.41,2.22,1.76,0,.62-.55,1.09-1.38,1.09Z"/>
    <path class="cls-4" d="M98.25,61.16h-.49v-.52h.49v-.95h.63v.95h.99v.52h-.99v2.23c0,.37.14.5.52.5h.46v.53h-.57c-.67,0-1.05-.28-1.05-1.04v-2.23Z"/>
    <path class="cls-4" d="M102.18,60.58c.7,0,1.19.36,1.41.75v-.69h.63v3.79h-.63v-.71c-.23.41-.72.77-1.41.77-1.01,0-1.79-.8-1.79-1.97s.78-1.94,1.79-1.94ZM102.31,61.12c-.69,0-1.28.5-1.28,1.4s.59,1.42,1.28,1.42,1.28-.52,1.28-1.41-.59-1.4-1.28-1.4Z"/>
    <path class="cls-4" d="M108.06,62.28c0-.77-.42-1.17-1.06-1.17s-1.08.4-1.08,1.22v2.1h-.63v-3.79h.63v.54c.25-.39.7-.61,1.21-.61.88,0,1.55.54,1.55,1.63v2.23h-.62v-2.14Z"/>
    <path class="cls-4" d="M111.35,60.58c.94,0,1.55.48,1.75,1.28h-.68c-.13-.46-.51-.75-1.07-.75-.69,0-1.2.49-1.2,1.42s.51,1.43,1.2,1.43c.56,0,.93-.27,1.07-.75h.68c-.19.75-.81,1.28-1.75,1.28-1.08,0-1.84-.76-1.84-1.96s.77-1.95,1.84-1.95Z"/>
    <path class="cls-4" d="M115.52,64.49c-1.08,0-1.87-.76-1.87-1.96s.77-1.95,1.87-1.95,1.82.77,1.82,1.81c0,.14,0,.25-.02.38h-3.02c.05.77.59,1.19,1.23,1.19.57,0,.92-.29,1.06-.7h.68c-.19.69-.8,1.23-1.74,1.23ZM114.3,62.26h2.39c0-.74-.55-1.15-1.19-1.15-.61,0-1.12.41-1.19,1.15Z"/>
  </g>
</svg>